<svg width="72" height="56" viewBox="0 0 72 56" fill="none" xmlns="http://www.w3.org/2000/svg">
<path d="M60.9907 4.6901C56.2689 2.4703 51.2736 0.893031 46.1368 0C45.4969 1.16228 44.7494 2.72555 44.2338 3.96922C38.6955 3.13248 33.208 3.13248 27.7714 3.96922C27.2562 2.72583 26.4918 1.16228 25.846 0C20.7042 0.893443 15.7046 2.47472 10.9805 4.70168C1.58004 18.9749 -0.968363 32.8931 0.305699 46.6144C6.54073 51.2927 12.5831 54.1346 18.5237 55.9943C20 53.9544 21.3051 51.7947 22.4254 49.5375C20.2925 48.7216 18.2363 47.7162 16.2813 46.533C16.7957 46.1499 17.2981 45.7506 17.7876 45.3357C29.6344 50.9033 42.5067 50.9033 54.2123 45.3357C54.704 45.7479 55.2061 46.1471 55.7184 46.533C53.7602 47.7193 51.7002 48.7268 49.563 49.5434C50.6896 51.8098 51.9924 53.9716 53.4647 56C59.4109 54.1406 65.4589 51.2986 71.694 46.6144C73.1891 30.7082 69.1402 16.9176 60.9907 4.6901ZM24.0395 38.1761C20.4831 38.1761 17.5666 34.8402 17.5666 30.778C17.5666 26.7158 20.421 23.3742 24.0395 23.3742C27.6584 23.3742 30.5747 26.7098 30.5125 30.778C30.5181 34.8402 27.6584 38.1761 24.0395 38.1761ZM47.9601 38.1761C44.4037 38.1761 41.4874 34.8402 41.4874 30.778C41.4874 26.7158 44.3416 23.3742 47.9601 23.3742C51.579 23.3742 54.4952 26.7098 54.4331 30.778C54.4331 34.8402 51.579 38.1761 47.9601 38.1761Z" fill="#0F1443"/>
</svg>
