<svg width="18" height="29" viewBox="0 0 18 29" fill="none" xmlns="http://www.w3.org/2000/svg">
<path d="M7.60506 15.275C8.76006 13.19 10.9801 11.96 12.2701 10.115C13.6351 8.18 12.8701 4.565 9.00006 4.565C6.46506 4.565 5.22006 6.485 4.69506 8.075L0.810059 6.44C1.87506 3.245 4.77006 0.5 8.98506 0.5C12.5101 0.5 14.9251 2.105 16.1551 4.115C17.2051 5.84 17.8201 9.065 16.2001 11.465C14.4001 14.12 12.6751 14.93 11.7451 16.64C11.3701 17.33 11.2201 17.78 11.2201 20H6.88506C6.87006 18.83 6.69006 16.925 7.60506 15.275ZM12.0001 26C12.0001 27.65 10.6501 29 9.00006 29C7.35006 29 6.00006 27.65 6.00006 26C6.00006 24.35 7.35006 23 9.00006 23C10.6501 23 12.0001 24.35 12.0001 26Z" fill="#2D2D2D"/>
</svg>
