<svg width="61" height="61" viewBox="0 0 61 61" fill="none" xmlns="http://www.w3.org/2000/svg">
<path d="M30.6001 0.600098C14.0401 0.600098 0.600098 14.0401 0.600098 30.6001C0.600098 47.1601 14.0401 60.6001 30.6001 60.6001C47.1601 60.6001 60.6001 47.1601 60.6001 30.6001C60.6001 14.0401 47.1601 0.600098 30.6001 0.600098ZM48.0001 34.5901C48.0601 35.0101 48.0901 35.4601 48.0901 35.9101C48.0901 42.6301 40.2601 48.0901 30.6001 48.0901C20.9401 48.0901 13.1101 42.6301 13.1101 35.9101C13.1101 35.4601 13.1401 35.0101 13.2001 34.5901C11.6701 33.9001 10.6201 32.3701 10.6201 30.6001C10.6157 29.7398 10.8655 28.8974 11.3383 28.1787C11.811 27.46 12.4857 26.897 13.2774 26.5604C14.0691 26.2239 14.9426 26.1288 15.7882 26.2871C16.6338 26.4453 17.4137 26.85 18.0301 27.4501C21.0601 25.2601 25.2601 23.8801 29.9101 23.7301L32.1301 13.2601C32.1601 13.0501 32.2801 12.8701 32.4601 12.7801C32.6401 12.6601 32.8501 12.6301 33.0601 12.6601L40.3201 14.2201C40.5663 13.7208 40.9416 13.2965 41.4071 12.9912C41.8726 12.6859 42.4113 12.5107 42.9673 12.4838C43.5233 12.4568 44.0765 12.5791 44.5693 12.838C45.0621 13.0969 45.4767 13.4829 45.77 13.9561C46.0633 14.4292 46.2247 14.9722 46.2375 15.5287C46.2502 16.0852 46.1138 16.635 45.8425 17.1211C45.5711 17.6071 45.1746 18.0117 44.6942 18.2929C44.2137 18.5741 43.6668 18.7216 43.1101 18.7201C41.4301 18.7201 40.0801 17.4001 39.9901 15.7501L33.4801 14.3701L31.5001 23.7301C36.0901 23.8801 40.2001 25.2901 43.2001 27.4501C43.66 27.0109 44.2103 26.6776 44.8125 26.4733C45.4147 26.269 46.0542 26.1988 46.6864 26.2675C47.3186 26.3363 47.9281 26.5423 48.4723 26.8712C49.0166 27.2001 49.4824 27.6439 49.8371 28.1717C50.1919 28.6994 50.4271 29.2983 50.5262 29.9264C50.6254 30.5545 50.5861 31.1967 50.4111 31.8081C50.2361 32.4194 49.9297 32.9851 49.5133 33.4657C49.0968 33.9462 48.5804 34.33 48.0001 34.5901Z" fill="#0F1443"/>
</svg>
