<svg width="68" height="40" viewBox="0 0 68 40" fill="none" xmlns="http://www.w3.org/2000/svg">
<path fill-rule="evenodd" clip-rule="evenodd" d="M66.3993 2.77778C66.9036 1.21111 66.3993 0.0722218 64.168 0.0722218H56.7489C54.8775 0.0722218 54.0133 1.06944 53.509 2.13611C53.509 2.13611 49.6925 11.2472 44.363 17.1542C42.6346 18.8625 41.8427 19.4319 40.9063 19.4319C40.402 19.4319 39.7531 18.8625 39.7531 17.2972V2.70417C39.7531 0.854167 39.178 0 37.5927 0H25.925C24.7719 0 24.0522 0.854167 24.0522 1.70833C24.0522 3.4875 26.717 3.91528 27.0045 8.89722V19.7222C27.0045 22.0708 26.5795 22.5 25.636 22.5C23.1158 22.5 16.9944 13.3181 13.3224 2.85556C12.6084 0.783333 11.883 0 10.0102 0H2.52025C0.359834 0 0 0.995833 0 2.06389C0 3.98611 2.52025 13.6653 11.7385 26.4764C17.8599 35.2264 26.5739 39.9292 34.4236 39.9292C39.178 39.9292 39.7531 38.8611 39.7531 37.0819V30.4625C39.7531 28.3278 40.1852 27.9722 41.6982 27.9722C42.7777 27.9722 44.7228 28.5403 49.1159 32.7403C54.1564 37.7222 55.0206 40 57.8298 40H65.2475C67.4079 40 68.4166 38.9319 67.84 36.8681C67.1926 34.8042 64.7432 31.8153 61.5741 28.2569C59.8458 26.2653 57.2532 24.0583 56.4613 22.9903C55.3818 21.5667 55.6694 20.9972 56.4613 19.7167C56.3891 19.7167 65.4643 7.04722 66.3993 2.77222" fill="#0F1443"/>
</svg>
